<svg width="512" height="512" viewBox="0 0 512 512" fill="none" xmlns="http://www.w3.org/2000/svg">
<g clip-path="url(#clip0_44_3)">
<rect width="512" height="512" fill="black"/>
<path d="M99.2 400V106H144.4V360H228.8V400H99.2ZM332.425 404C321.225 404 310.158 402.667 299.225 400C288.292 397.067 278.558 393.6 270.025 389.6C261.492 385.333 255.092 381.067 250.825 376.8L272.025 338.8C274.958 341.2 279.492 344.4 285.625 348.4C292.025 352.133 299.358 355.467 307.625 358.4C315.892 361.333 324.158 362.8 332.425 362.8C346.025 362.8 357.358 359.6 366.425 353.2C375.758 346.8 380.425 337.467 380.425 325.2C380.425 315.067 377.758 306.667 372.425 300C367.092 293.333 360.025 287.467 351.225 282.4C342.692 277.333 333.358 272.533 323.225 268C313.358 263.2 303.892 257.867 294.825 252C284.425 245.067 275.358 235.867 267.625 224.4C259.892 212.933 256.025 198.133 256.025 180C256.025 162.133 260.025 147.467 268.025 136C276.292 124.533 287.092 116 300.425 110.4C314.025 104.533 328.825 101.6 344.825 101.6C357.625 101.6 368.558 102.933 377.625 105.6C386.692 108.267 394.292 111.467 400.425 115.2C406.558 118.933 411.358 122.267 414.825 125.2L393.625 161.6C389.092 156.8 382.292 152.4 373.225 148.4C364.158 144.133 354.025 142 342.825 142C329.758 142 319.358 145.067 311.625 151.2C303.892 157.067 300.025 165.867 300.025 177.6C300.025 188 303.492 196.933 310.425 204.4C317.358 211.6 326.158 218.267 336.825 224.4C347.758 230.267 358.958 236.267 370.425 242.4C381.892 248.533 392.025 255.733 400.825 264C408.025 270.4 414.158 278.4 419.225 288C424.292 297.6 426.825 308.4 426.825 320.4C426.825 338.533 422.558 353.867 414.025 366.4C405.758 378.933 394.558 388.4 380.425 394.8C366.292 400.933 350.292 404 332.425 404Z" fill="white"/>
</g>
<defs>
<clipPath id="clip0_44_3">
<rect width="512" height="512" fill="white"/>
</clipPath>
</defs>
</svg>
